Coordinates
version=1
nRows=21
nColumns=12
inDegrees=yes

Units are S.I. units (second, meters, Newtons, ...)
Angles are in degrees

endheader
time	SC_y	SC_z	SC_x	AC_y	AC_z	AC_x	GH_y	GH_z	GH_yy	EL_x	PS_y
       0.0              -24.22          37.74          4.238           35.2          -12.4         -16.77          91.19          14.45         -170.8          94.02           14.9
  0.008846              -24.22          37.73          4.244          35.21          -12.4         -16.76          91.17          14.46         -170.7          94.01          14.91
   0.01769              -24.22          37.73          4.251          35.21          -12.4         -16.75          91.14          14.46         -170.7          94.01          14.93
   0.02654              -24.23          37.73          4.259          35.21          -12.4         -16.75          91.11          14.47         -170.7           94.0          14.95
   0.03538              -24.23          37.72          4.267          35.22          -12.4         -16.74          91.08          14.48         -170.7           94.0          14.97
   0.04423              -24.23          37.72          4.275          35.22         -12.41         -16.74          91.05          14.48         -170.7          93.99          14.99
   0.05308              -24.23          37.71          4.284          35.23         -12.41         -16.73          91.01          14.49         -170.7          93.99          15.02
   0.06192              -24.24           37.7          4.294          35.23         -12.41         -16.72          90.97          14.49         -170.7          93.98          15.04
   0.07077              -24.24           37.7          4.304          35.23         -12.41         -16.71          90.93           14.5         -170.7          93.97          15.07
   0.07961              -24.24          37.69          4.315          35.24         -12.41          -16.7          90.89          14.51         -170.7          93.97           15.1
   0.08846              -24.25          37.68          4.327          35.24         -12.41         -16.69          90.84          14.52         -170.7          93.96          15.13
   0.09731              -24.25          37.68           4.34          35.25         -12.41         -16.68          90.79          14.53         -170.7          93.95          15.16
    0.1062              -24.25          37.67          4.354          35.26         -12.41         -16.67          90.74          14.54         -170.7          93.94           15.2
     0.115              -24.26          37.66          4.368          35.26         -12.42         -16.66          90.68          14.55         -170.7          93.93          15.24
    0.1238              -24.26          37.65          4.385          35.27         -12.42         -16.65          90.62          14.56         -170.6          93.92          15.28
    0.1327              -24.27          37.64          4.402          35.28         -12.42         -16.63          90.55          14.57         -170.6          93.91          15.32
    0.1415              -24.27          37.63          4.421          35.29         -12.42         -16.62          90.47          14.59         -170.6          93.89          15.37
    0.1504              -24.28          37.61          4.442           35.3         -12.42          -16.6          90.39           14.6         -170.6          93.88          15.43
    0.1592              -24.29           37.6          4.464          35.31         -12.43         -16.58           90.3          14.62         -170.6          93.86          15.49
    0.1681              -24.29          37.58          4.489          35.32         -12.43         -16.56           90.2          14.64         -170.6          93.85          15.55
    0.1769               -24.3          37.57          4.516          35.33         -12.43         -16.54           90.1          14.66         -170.5          93.83          15.62
